<mxfile host="app.diagrams.net" modified="2024-03-18T09:47:26.399Z" agent="Mozilla/5.0 (Windows NT 10.0; Win64; x64) AppleWebKit/537.36 (KHTML, like Gecko) Chrome/120.0.0.0 YaBrowser/24.1.0.0 Safari/537.36" etag="_RQ6V4LlCuasrxdzuhVg" version="24.0.7" type="google">
  <diagram name="Страница — 1" id="Z8m7isTiY38Sr-a7qinL">
    <mxGraphModel grid="1" page="1" gridSize="10" guides="1" tooltips="1" connect="1" arrows="1" fold="1" pageScale="1" pageWidth="827" pageHeight="1169" math="0" shadow="0">
      <root>
        <mxCell id="0" />
        <mxCell id="1" parent="0" />
        <mxCell id="3QiWCpK0ool-okUUA7gq-1" value="2 задание" style="swimlane;whiteSpace=wrap;html=1;" vertex="1" parent="1">
          <mxGeometry x="-2" y="480" width="824" height="600" as="geometry" />
        </mxCell>
        <mxCell id="3QiWCpK0ool-okUUA7gq-2" value="" style="edgeStyle=orthogonalEdgeStyle;rounded=0;orthogonalLoop=1;jettySize=auto;html=1;" edge="1" parent="3QiWCpK0ool-okUUA7gq-1" source="3QiWCpK0ool-okUUA7gq-3" target="3QiWCpK0ool-okUUA7gq-13">
          <mxGeometry relative="1" as="geometry" />
        </mxCell>
        <mxCell id="3QiWCpK0ool-okUUA7gq-3" value="Ввод word" style="rounded=1;whiteSpace=wrap;html=1;" vertex="1" parent="3QiWCpK0ool-okUUA7gq-1">
          <mxGeometry x="600" y="50" width="200" height="60" as="geometry" />
        </mxCell>
        <mxCell id="3QiWCpK0ool-okUUA7gq-4" value="" style="edgeStyle=orthogonalEdgeStyle;rounded=0;orthogonalLoop=1;jettySize=auto;html=1;" edge="1" parent="3QiWCpK0ool-okUUA7gq-1" source="3QiWCpK0ool-okUUA7gq-5" target="3QiWCpK0ool-okUUA7gq-6">
          <mxGeometry relative="1" as="geometry" />
        </mxCell>
        <mxCell id="3QiWCpK0ool-okUUA7gq-5" value="Если i % 2 == 0 и&amp;nbsp;word[i].lower() в vowels" style="rhombus;whiteSpace=wrap;html=1;" vertex="1" parent="3QiWCpK0ool-okUUA7gq-1">
          <mxGeometry x="10" y="140" width="260" height="120" as="geometry" />
        </mxCell>
        <mxCell id="3QiWCpK0ool-okUUA7gq-6" value="Count += 1" style="rounded=1;whiteSpace=wrap;html=1;" vertex="1" parent="3QiWCpK0ool-okUUA7gq-1">
          <mxGeometry x="40" y="320" width="200" height="60" as="geometry" />
        </mxCell>
        <mxCell id="3QiWCpK0ool-okUUA7gq-7" value="True" style="text;html=1;align=center;verticalAlign=middle;whiteSpace=wrap;rounded=0;" vertex="1" parent="3QiWCpK0ool-okUUA7gq-1">
          <mxGeometry x="130" y="270" width="60" height="30" as="geometry" />
        </mxCell>
        <mxCell id="3QiWCpK0ool-okUUA7gq-8" value="" style="endArrow=classic;html=1;rounded=0;exitX=1;exitY=0.5;exitDx=0;exitDy=0;entryX=1;entryY=0.5;entryDx=0;entryDy=0;edgeStyle=orthogonalEdgeStyle;" edge="1" parent="3QiWCpK0ool-okUUA7gq-1" source="3QiWCpK0ool-okUUA7gq-6" target="3QiWCpK0ool-okUUA7gq-5">
          <mxGeometry width="50" height="50" relative="1" as="geometry">
            <mxPoint x="330" y="350" as="sourcePoint" />
            <mxPoint x="380" y="300" as="targetPoint" />
            <Array as="points">
              <mxPoint x="320" y="350" />
              <mxPoint x="320" y="200" />
            </Array>
          </mxGeometry>
        </mxCell>
        <mxCell id="3QiWCpK0ool-okUUA7gq-9" value="Возвращает Count" style="rounded=1;whiteSpace=wrap;html=1;" vertex="1" parent="3QiWCpK0ool-okUUA7gq-1">
          <mxGeometry x="40" y="410" width="200" height="60" as="geometry" />
        </mxCell>
        <mxCell id="3QiWCpK0ool-okUUA7gq-10" value="" style="endArrow=classic;html=1;rounded=0;exitX=0;exitY=0.5;exitDx=0;exitDy=0;entryX=0;entryY=0.5;entryDx=0;entryDy=0;edgeStyle=orthogonalEdgeStyle;" edge="1" parent="3QiWCpK0ool-okUUA7gq-1" source="3QiWCpK0ool-okUUA7gq-5" target="3QiWCpK0ool-okUUA7gq-9">
          <mxGeometry width="50" height="50" relative="1" as="geometry">
            <mxPoint x="70" y="570" as="sourcePoint" />
            <mxPoint x="120" y="520" as="targetPoint" />
            <Array as="points">
              <mxPoint x="10" y="440" />
            </Array>
          </mxGeometry>
        </mxCell>
        <mxCell id="3QiWCpK0ool-okUUA7gq-11" value="End" style="text;html=1;align=center;verticalAlign=middle;whiteSpace=wrap;rounded=0;" vertex="1" parent="3QiWCpK0ool-okUUA7gq-1">
          <mxGeometry y="250" width="60" height="30" as="geometry" />
        </mxCell>
        <mxCell id="3QiWCpK0ool-okUUA7gq-12" value="" style="edgeStyle=orthogonalEdgeStyle;rounded=0;orthogonalLoop=1;jettySize=auto;html=1;" edge="1" parent="3QiWCpK0ool-okUUA7gq-1" source="3QiWCpK0ool-okUUA7gq-13" target="3QiWCpK0ool-okUUA7gq-14">
          <mxGeometry relative="1" as="geometry" />
        </mxCell>
        <mxCell id="3QiWCpK0ool-okUUA7gq-13" value="Разделение на отдельные слова" style="rounded=1;whiteSpace=wrap;html=1;" vertex="1" parent="3QiWCpK0ool-okUUA7gq-1">
          <mxGeometry x="600" y="140" width="200" height="60" as="geometry" />
        </mxCell>
        <mxCell id="3QiWCpK0ool-okUUA7gq-14" value="Перебор каждого элемента" style="rhombus;whiteSpace=wrap;html=1;" vertex="1" parent="3QiWCpK0ool-okUUA7gq-1">
          <mxGeometry x="600" y="230" width="200" height="100" as="geometry" />
        </mxCell>
        <mxCell id="3QiWCpK0ool-okUUA7gq-15" value="" style="endArrow=classic;html=1;rounded=0;exitX=0;exitY=0.5;exitDx=0;exitDy=0;entryX=0.5;entryY=0;entryDx=0;entryDy=0;edgeStyle=orthogonalEdgeStyle;" edge="1" parent="3QiWCpK0ool-okUUA7gq-1" source="3QiWCpK0ool-okUUA7gq-14" target="3QiWCpK0ool-okUUA7gq-5">
          <mxGeometry width="50" height="50" relative="1" as="geometry">
            <mxPoint x="540" y="430" as="sourcePoint" />
            <mxPoint x="590" y="380" as="targetPoint" />
            <Array as="points">
              <mxPoint x="560" y="280" />
              <mxPoint x="560" y="110" />
              <mxPoint x="140" y="110" />
            </Array>
          </mxGeometry>
        </mxCell>
        <mxCell id="3QiWCpK0ool-okUUA7gq-16" value="" style="edgeStyle=orthogonalEdgeStyle;rounded=0;orthogonalLoop=1;jettySize=auto;html=1;" edge="1" parent="3QiWCpK0ool-okUUA7gq-1" source="3QiWCpK0ool-okUUA7gq-17" target="3QiWCpK0ool-okUUA7gq-21">
          <mxGeometry relative="1" as="geometry" />
        </mxCell>
        <mxCell id="3QiWCpK0ool-okUUA7gq-17" value="Рейтинга слова" style="rounded=1;whiteSpace=wrap;html=1;" vertex="1" parent="3QiWCpK0ool-okUUA7gq-1">
          <mxGeometry x="600" y="370" width="200" height="60" as="geometry" />
        </mxCell>
        <mxCell id="3QiWCpK0ool-okUUA7gq-18" value="" style="endArrow=classic;html=1;rounded=0;exitX=1;exitY=0.5;exitDx=0;exitDy=0;entryX=0;entryY=0.5;entryDx=0;entryDy=0;edgeStyle=orthogonalEdgeStyle;" edge="1" parent="3QiWCpK0ool-okUUA7gq-1" source="3QiWCpK0ool-okUUA7gq-9" target="3QiWCpK0ool-okUUA7gq-17">
          <mxGeometry width="50" height="50" relative="1" as="geometry">
            <mxPoint x="460" y="450" as="sourcePoint" />
            <mxPoint x="510" y="400" as="targetPoint" />
            <Array as="points">
              <mxPoint x="560" y="440" />
              <mxPoint x="560" y="400" />
            </Array>
          </mxGeometry>
        </mxCell>
        <mxCell id="3QiWCpK0ool-okUUA7gq-19" value="" style="endArrow=classic;html=1;rounded=0;exitX=0.5;exitY=0;exitDx=0;exitDy=0;entryX=0.5;entryY=1;entryDx=0;entryDy=0;" edge="1" parent="3QiWCpK0ool-okUUA7gq-1" source="3QiWCpK0ool-okUUA7gq-17" target="3QiWCpK0ool-okUUA7gq-14">
          <mxGeometry width="50" height="50" relative="1" as="geometry">
            <mxPoint x="490" y="370" as="sourcePoint" />
            <mxPoint x="540" y="320" as="targetPoint" />
          </mxGeometry>
        </mxCell>
        <mxCell id="3QiWCpK0ool-okUUA7gq-20" value="Повторить" style="text;html=1;align=center;verticalAlign=middle;whiteSpace=wrap;rounded=0;" vertex="1" parent="3QiWCpK0ool-okUUA7gq-1">
          <mxGeometry x="700" y="335" width="60" height="30" as="geometry" />
        </mxCell>
        <mxCell id="3QiWCpK0ool-okUUA7gq-21" value="Вывод слов по возрастанию их рейтингов" style="rounded=1;whiteSpace=wrap;html=1;" vertex="1" parent="3QiWCpK0ool-okUUA7gq-1">
          <mxGeometry x="600" y="470" width="200" height="60" as="geometry" />
        </mxCell>
        <mxCell id="3QiWCpK0ool-okUUA7gq-22" value="Далее" style="text;html=1;align=center;verticalAlign=middle;whiteSpace=wrap;rounded=0;" vertex="1" parent="3QiWCpK0ool-okUUA7gq-1">
          <mxGeometry x="690" y="430" width="60" height="30" as="geometry" />
        </mxCell>
        <mxCell id="3QiWCpK0ool-okUUA7gq-38" value="4 задание" style="swimlane;whiteSpace=wrap;html=1;" vertex="1" parent="1">
          <mxGeometry x="-2" y="1600" width="820" height="590" as="geometry" />
        </mxCell>
        <mxCell id="3QiWCpK0ool-okUUA7gq-39" value="" style="edgeStyle=orthogonalEdgeStyle;rounded=0;orthogonalLoop=1;jettySize=auto;html=1;" edge="1" parent="3QiWCpK0ool-okUUA7gq-38" source="3QiWCpK0ool-okUUA7gq-40" target="3QiWCpK0ool-okUUA7gq-42">
          <mxGeometry relative="1" as="geometry" />
        </mxCell>
        <mxCell id="3QiWCpK0ool-okUUA7gq-40" value="Ввод данных и способов сортировки" style="rounded=1;whiteSpace=wrap;html=1;" vertex="1" parent="3QiWCpK0ool-okUUA7gq-38">
          <mxGeometry x="20" y="40" width="180" height="60" as="geometry" />
        </mxCell>
        <mxCell id="3QiWCpK0ool-okUUA7gq-41" value="" style="edgeStyle=orthogonalEdgeStyle;rounded=0;orthogonalLoop=1;jettySize=auto;html=1;" edge="1" parent="3QiWCpK0ool-okUUA7gq-38" source="3QiWCpK0ool-okUUA7gq-42" target="3QiWCpK0ool-okUUA7gq-44">
          <mxGeometry relative="1" as="geometry" />
        </mxCell>
        <mxCell id="3QiWCpK0ool-okUUA7gq-42" value="Трансформация данных в матрицу" style="rounded=1;whiteSpace=wrap;html=1;" vertex="1" parent="3QiWCpK0ool-okUUA7gq-38">
          <mxGeometry x="20" y="130" width="180" height="60" as="geometry" />
        </mxCell>
        <mxCell id="3QiWCpK0ool-okUUA7gq-43" value="" style="edgeStyle=orthogonalEdgeStyle;rounded=0;orthogonalLoop=1;jettySize=auto;html=1;" edge="1" parent="3QiWCpK0ool-okUUA7gq-38" source="3QiWCpK0ool-okUUA7gq-44" target="3QiWCpK0ool-okUUA7gq-46">
          <mxGeometry relative="1" as="geometry" />
        </mxCell>
        <mxCell id="3QiWCpK0ool-okUUA7gq-44" value="Цикл&amp;nbsp;&lt;div&gt;func_name, indices в аргументах&lt;/div&gt;" style="rhombus;whiteSpace=wrap;html=1;" vertex="1" parent="3QiWCpK0ool-okUUA7gq-38">
          <mxGeometry x="30" y="220" width="160" height="80" as="geometry" />
        </mxCell>
        <mxCell id="3QiWCpK0ool-okUUA7gq-45" value="" style="edgeStyle=orthogonalEdgeStyle;rounded=0;orthogonalLoop=1;jettySize=auto;html=1;" edge="1" parent="3QiWCpK0ool-okUUA7gq-38" source="3QiWCpK0ool-okUUA7gq-46" target="3QiWCpK0ool-okUUA7gq-48">
          <mxGeometry relative="1" as="geometry" />
        </mxCell>
        <mxCell id="3QiWCpK0ool-okUUA7gq-46" value="Если&amp;nbsp;func_name есть в аргументах и нет в исключениях" style="rhombus;whiteSpace=wrap;html=1;" vertex="1" parent="3QiWCpK0ool-okUUA7gq-38">
          <mxGeometry x="30" y="320" width="160" height="80" as="geometry" />
        </mxCell>
        <mxCell id="3QiWCpK0ool-okUUA7gq-47" value="" style="edgeStyle=orthogonalEdgeStyle;rounded=0;orthogonalLoop=1;jettySize=auto;html=1;" edge="1" parent="3QiWCpK0ool-okUUA7gq-38" source="3QiWCpK0ool-okUUA7gq-48" target="3QiWCpK0ool-okUUA7gq-50">
          <mxGeometry relative="1" as="geometry" />
        </mxCell>
        <mxCell id="3QiWCpK0ool-okUUA7gq-48" value="Получение кода обработки" style="rounded=1;whiteSpace=wrap;html=1;" vertex="1" parent="3QiWCpK0ool-okUUA7gq-38">
          <mxGeometry x="230" y="330" width="140" height="60" as="geometry" />
        </mxCell>
        <mxCell id="3QiWCpK0ool-okUUA7gq-49" value="" style="edgeStyle=orthogonalEdgeStyle;rounded=0;orthogonalLoop=1;jettySize=auto;html=1;" edge="1" parent="3QiWCpK0ool-okUUA7gq-38" source="3QiWCpK0ool-okUUA7gq-50" target="3QiWCpK0ool-okUUA7gq-51">
          <mxGeometry relative="1" as="geometry" />
        </mxCell>
        <mxCell id="3QiWCpK0ool-okUUA7gq-50" value="Цикл&lt;div&gt;i, j в&amp;nbsp;indices&lt;/div&gt;" style="rhombus;whiteSpace=wrap;html=1;" vertex="1" parent="3QiWCpK0ool-okUUA7gq-38">
          <mxGeometry x="413.5" y="320" width="158" height="80" as="geometry" />
        </mxCell>
        <mxCell id="3QiWCpK0ool-okUUA7gq-51" value="Обработка значениий&amp;nbsp;" style="rounded=1;whiteSpace=wrap;html=1;" vertex="1" parent="3QiWCpK0ool-okUUA7gq-38">
          <mxGeometry x="433" y="440" width="120" height="60" as="geometry" />
        </mxCell>
        <mxCell id="3QiWCpK0ool-okUUA7gq-52" value="" style="endArrow=classic;html=1;rounded=0;exitX=1;exitY=0.5;exitDx=0;exitDy=0;entryX=1;entryY=0.5;entryDx=0;entryDy=0;edgeStyle=orthogonalEdgeStyle;" edge="1" parent="3QiWCpK0ool-okUUA7gq-38" source="3QiWCpK0ool-okUUA7gq-51" target="3QiWCpK0ool-okUUA7gq-50">
          <mxGeometry width="50" height="50" relative="1" as="geometry">
            <mxPoint x="640" y="470" as="sourcePoint" />
            <mxPoint x="690" y="420" as="targetPoint" />
            <Array as="points">
              <mxPoint x="620" y="470" />
              <mxPoint x="620" y="360" />
            </Array>
          </mxGeometry>
        </mxCell>
        <mxCell id="3QiWCpK0ool-okUUA7gq-53" value="" style="endArrow=classic;html=1;rounded=0;exitX=0.5;exitY=0;exitDx=0;exitDy=0;entryX=1;entryY=0.5;entryDx=0;entryDy=0;edgeStyle=orthogonalEdgeStyle;" edge="1" parent="3QiWCpK0ool-okUUA7gq-38" source="3QiWCpK0ool-okUUA7gq-50" target="3QiWCpK0ool-okUUA7gq-44">
          <mxGeometry width="50" height="50" relative="1" as="geometry">
            <mxPoint x="490" y="250" as="sourcePoint" />
            <mxPoint x="540" y="200" as="targetPoint" />
          </mxGeometry>
        </mxCell>
        <mxCell id="3QiWCpK0ool-okUUA7gq-54" value="Вернуть результат" style="rounded=1;whiteSpace=wrap;html=1;" vertex="1" parent="3QiWCpK0ool-okUUA7gq-38">
          <mxGeometry x="50" y="450" width="120" height="60" as="geometry" />
        </mxCell>
        <mxCell id="3QiWCpK0ool-okUUA7gq-55" value="" style="endArrow=classic;html=1;rounded=0;exitX=0;exitY=0.5;exitDx=0;exitDy=0;entryX=0;entryY=0.5;entryDx=0;entryDy=0;edgeStyle=orthogonalEdgeStyle;" edge="1" parent="3QiWCpK0ool-okUUA7gq-38" source="3QiWCpK0ool-okUUA7gq-44" target="3QiWCpK0ool-okUUA7gq-54">
          <mxGeometry width="50" height="50" relative="1" as="geometry">
            <mxPoint x="270" y="520" as="sourcePoint" />
            <mxPoint x="320" y="470" as="targetPoint" />
            <Array as="points">
              <mxPoint x="10" y="260" />
              <mxPoint x="10" y="480" />
            </Array>
          </mxGeometry>
        </mxCell>
        <mxCell id="6oG_hnalUrKW2wozVYZz-19" value="1 задание" style="swimlane;whiteSpace=wrap;html=1;" vertex="1" parent="1">
          <mxGeometry width="820" height="480" as="geometry" />
        </mxCell>
        <mxCell id="6oG_hnalUrKW2wozVYZz-20" value="" style="edgeStyle=orthogonalEdgeStyle;rounded=0;orthogonalLoop=1;jettySize=auto;html=1;" edge="1" parent="6oG_hnalUrKW2wozVYZz-19" source="6oG_hnalUrKW2wozVYZz-21" target="6oG_hnalUrKW2wozVYZz-23">
          <mxGeometry relative="1" as="geometry" />
        </mxCell>
        <mxCell id="6oG_hnalUrKW2wozVYZz-21" value="Ввод размера ковра (Dk)" style="rounded=1;whiteSpace=wrap;html=1;" vertex="1" parent="6oG_hnalUrKW2wozVYZz-19">
          <mxGeometry x="40" y="40" width="160" height="60" as="geometry" />
        </mxCell>
        <mxCell id="6oG_hnalUrKW2wozVYZz-22" value="" style="edgeStyle=orthogonalEdgeStyle;rounded=0;orthogonalLoop=1;jettySize=auto;html=1;" edge="1" parent="6oG_hnalUrKW2wozVYZz-19" source="6oG_hnalUrKW2wozVYZz-23" target="6oG_hnalUrKW2wozVYZz-24">
          <mxGeometry relative="1" as="geometry" />
        </mxCell>
        <mxCell id="6oG_hnalUrKW2wozVYZz-23" value="Цикл (Внешний)&lt;div&gt;от 0 до Dk&lt;/div&gt;" style="rhombus;whiteSpace=wrap;html=1;" vertex="1" parent="6oG_hnalUrKW2wozVYZz-19">
          <mxGeometry x="40" y="150" width="160" height="100" as="geometry" />
        </mxCell>
        <mxCell id="6oG_hnalUrKW2wozVYZz-24" value="Поочерёдный вывод срок ковра" style="rounded=1;whiteSpace=wrap;html=1;" vertex="1" parent="6oG_hnalUrKW2wozVYZz-19">
          <mxGeometry x="40" y="290" width="160" height="60" as="geometry" />
        </mxCell>
        <mxCell id="6oG_hnalUrKW2wozVYZz-25" value="" style="edgeStyle=orthogonalEdgeStyle;rounded=0;orthogonalLoop=1;jettySize=auto;html=1;" edge="1" parent="6oG_hnalUrKW2wozVYZz-19" source="6oG_hnalUrKW2wozVYZz-27" target="6oG_hnalUrKW2wozVYZz-23">
          <mxGeometry relative="1" as="geometry" />
        </mxCell>
        <mxCell id="6oG_hnalUrKW2wozVYZz-26" value="" style="edgeStyle=orthogonalEdgeStyle;rounded=0;orthogonalLoop=1;jettySize=auto;html=1;" edge="1" parent="6oG_hnalUrKW2wozVYZz-19" source="6oG_hnalUrKW2wozVYZz-27" target="6oG_hnalUrKW2wozVYZz-29">
          <mxGeometry relative="1" as="geometry" />
        </mxCell>
        <mxCell id="6oG_hnalUrKW2wozVYZz-27" value="Цикл (Внутренний)" style="rhombus;whiteSpace=wrap;html=1;" vertex="1" parent="6oG_hnalUrKW2wozVYZz-19">
          <mxGeometry x="240" y="150" width="160" height="100" as="geometry" />
        </mxCell>
        <mxCell id="6oG_hnalUrKW2wozVYZz-28" value="" style="endArrow=classic;html=1;rounded=0;exitX=0;exitY=0.5;exitDx=0;exitDy=0;entryX=0;entryY=0.5;entryDx=0;entryDy=0;edgeStyle=orthogonalEdgeStyle;" edge="1" parent="6oG_hnalUrKW2wozVYZz-19" source="6oG_hnalUrKW2wozVYZz-24" target="6oG_hnalUrKW2wozVYZz-23">
          <mxGeometry width="50" height="50" relative="1" as="geometry">
            <mxPoint x="300" y="410" as="sourcePoint" />
            <mxPoint x="350" y="360" as="targetPoint" />
            <Array as="points">
              <mxPoint x="20" y="320" />
              <mxPoint x="20" y="200" />
            </Array>
          </mxGeometry>
        </mxCell>
        <mxCell id="6oG_hnalUrKW2wozVYZz-29" value="Генерация элемента списка" style="rounded=1;whiteSpace=wrap;html=1;" vertex="1" parent="6oG_hnalUrKW2wozVYZz-19">
          <mxGeometry x="440" y="170" width="160" height="60" as="geometry" />
        </mxCell>
        <mxCell id="6oG_hnalUrKW2wozVYZz-30" value="" style="endArrow=classic;html=1;rounded=0;exitX=0.5;exitY=1;exitDx=0;exitDy=0;entryX=0.5;entryY=1;entryDx=0;entryDy=0;edgeStyle=orthogonalEdgeStyle;" edge="1" parent="6oG_hnalUrKW2wozVYZz-19" source="6oG_hnalUrKW2wozVYZz-29" target="6oG_hnalUrKW2wozVYZz-27">
          <mxGeometry width="50" height="50" relative="1" as="geometry">
            <mxPoint x="540" y="330" as="sourcePoint" />
            <mxPoint x="590" y="280" as="targetPoint" />
            <Array as="points">
              <mxPoint x="520" y="280" />
              <mxPoint x="320" y="280" />
            </Array>
          </mxGeometry>
        </mxCell>
        <mxCell id="6oG_hnalUrKW2wozVYZz-31" value="(i == j or i + j == Dk - 1)&amp;nbsp;&lt;div&gt;проверяет, находится ли текущая позиция на главной или побочной диагонали сетки.&lt;/div&gt;" style="rounded=0;whiteSpace=wrap;html=1;" vertex="1" parent="6oG_hnalUrKW2wozVYZz-19">
          <mxGeometry x="620" y="80" width="190" height="80" as="geometry" />
        </mxCell>
        <mxCell id="6oG_hnalUrKW2wozVYZz-32" value="i in [0, Dk - 1]&amp;nbsp;&lt;div&gt;проверяет, находится ли текущая позиция на первой или последней строке.&lt;/div&gt;" style="rounded=0;whiteSpace=wrap;html=1;" vertex="1" parent="6oG_hnalUrKW2wozVYZz-19">
          <mxGeometry x="620" y="170" width="190" height="70" as="geometry" />
        </mxCell>
        <mxCell id="6oG_hnalUrKW2wozVYZz-33" value="j in [0, Dk - 1]&amp;nbsp;&lt;div&gt;проверяет, находится ли текущая позиция на первом или последнем столбце.&lt;/div&gt;" style="rounded=0;whiteSpace=wrap;html=1;" vertex="1" parent="6oG_hnalUrKW2wozVYZz-19">
          <mxGeometry x="620" y="250" width="190" height="60" as="geometry" />
        </mxCell>
        <mxCell id="6oG_hnalUrKW2wozVYZz-34" value="" style="endArrow=none;dashed=1;html=1;dashPattern=1 3;strokeWidth=2;rounded=0;entryX=0;entryY=0.5;entryDx=0;entryDy=0;exitX=1;exitY=0;exitDx=0;exitDy=0;" edge="1" parent="6oG_hnalUrKW2wozVYZz-19" source="6oG_hnalUrKW2wozVYZz-29" target="6oG_hnalUrKW2wozVYZz-31">
          <mxGeometry width="50" height="50" relative="1" as="geometry">
            <mxPoint x="540" y="140" as="sourcePoint" />
            <mxPoint x="590" y="90" as="targetPoint" />
          </mxGeometry>
        </mxCell>
        <mxCell id="6oG_hnalUrKW2wozVYZz-35" value="" style="endArrow=none;dashed=1;html=1;dashPattern=1 3;strokeWidth=2;rounded=0;exitX=1;exitY=1;exitDx=0;exitDy=0;entryX=0;entryY=0.5;entryDx=0;entryDy=0;" edge="1" parent="6oG_hnalUrKW2wozVYZz-19" source="6oG_hnalUrKW2wozVYZz-29" target="6oG_hnalUrKW2wozVYZz-33">
          <mxGeometry width="50" height="50" relative="1" as="geometry">
            <mxPoint x="570" y="390" as="sourcePoint" />
            <mxPoint x="550" y="360" as="targetPoint" />
          </mxGeometry>
        </mxCell>
        <mxCell id="6oG_hnalUrKW2wozVYZz-36" value="" style="endArrow=none;dashed=1;html=1;dashPattern=1 3;strokeWidth=2;rounded=0;exitX=1;exitY=0.5;exitDx=0;exitDy=0;entryX=0;entryY=0.5;entryDx=0;entryDy=0;" edge="1" parent="6oG_hnalUrKW2wozVYZz-19" source="6oG_hnalUrKW2wozVYZz-29" target="6oG_hnalUrKW2wozVYZz-32">
          <mxGeometry width="50" height="50" relative="1" as="geometry">
            <mxPoint x="520" y="380" as="sourcePoint" />
            <mxPoint x="570" y="330" as="targetPoint" />
          </mxGeometry>
        </mxCell>
        <mxCell id="bc9_FfqfriQP2rn9gHKH-1" value="3 задание" style="swimlane;whiteSpace=wrap;html=1;" vertex="1" parent="1">
          <mxGeometry y="1080" width="820" height="520" as="geometry" />
        </mxCell>
        <mxCell id="bc9_FfqfriQP2rn9gHKH-2" value="" style="edgeStyle=orthogonalEdgeStyle;rounded=0;orthogonalLoop=1;jettySize=auto;html=1;" edge="1" parent="bc9_FfqfriQP2rn9gHKH-1" source="bc9_FfqfriQP2rn9gHKH-3" target="bc9_FfqfriQP2rn9gHKH-6">
          <mxGeometry relative="1" as="geometry" />
        </mxCell>
        <mxCell id="bc9_FfqfriQP2rn9gHKH-3" value="Ввод данных (ff) и сортировки (*args)" style="rounded=1;whiteSpace=wrap;html=1;" vertex="1" parent="bc9_FfqfriQP2rn9gHKH-1">
          <mxGeometry x="40" y="40" width="190" height="60" as="geometry" />
        </mxCell>
        <mxCell id="bc9_FfqfriQP2rn9gHKH-4" value="" style="edgeStyle=orthogonalEdgeStyle;rounded=0;orthogonalLoop=1;jettySize=auto;html=1;" edge="1" parent="bc9_FfqfriQP2rn9gHKH-1" source="bc9_FfqfriQP2rn9gHKH-6" target="bc9_FfqfriQP2rn9gHKH-7">
          <mxGeometry relative="1" as="geometry" />
        </mxCell>
        <mxCell id="bc9_FfqfriQP2rn9gHKH-5" value="" style="edgeStyle=orthogonalEdgeStyle;rounded=0;orthogonalLoop=1;jettySize=auto;html=1;" edge="1" parent="bc9_FfqfriQP2rn9gHKH-1" source="bc9_FfqfriQP2rn9gHKH-6" target="bc9_FfqfriQP2rn9gHKH-11">
          <mxGeometry relative="1" as="geometry" />
        </mxCell>
        <mxCell id="bc9_FfqfriQP2rn9gHKH-6" value="Если все элементы числа" style="rhombus;whiteSpace=wrap;html=1;" vertex="1" parent="bc9_FfqfriQP2rn9gHKH-1">
          <mxGeometry x="35" y="130" width="200" height="80" as="geometry" />
        </mxCell>
        <mxCell id="bc9_FfqfriQP2rn9gHKH-7" value="Вернуть отфильтрованные по введённой функции данные" style="rounded=1;whiteSpace=wrap;html=1;" vertex="1" parent="bc9_FfqfriQP2rn9gHKH-1">
          <mxGeometry x="290" y="140" width="150" height="60" as="geometry" />
        </mxCell>
        <mxCell id="bc9_FfqfriQP2rn9gHKH-8" value="True" style="text;html=1;align=center;verticalAlign=middle;whiteSpace=wrap;rounded=0;" vertex="1" parent="bc9_FfqfriQP2rn9gHKH-1">
          <mxGeometry x="230" y="140" width="60" height="30" as="geometry" />
        </mxCell>
        <mxCell id="bc9_FfqfriQP2rn9gHKH-9" value="" style="edgeStyle=orthogonalEdgeStyle;rounded=0;orthogonalLoop=1;jettySize=auto;html=1;" edge="1" parent="bc9_FfqfriQP2rn9gHKH-1" source="bc9_FfqfriQP2rn9gHKH-11" target="bc9_FfqfriQP2rn9gHKH-13">
          <mxGeometry relative="1" as="geometry" />
        </mxCell>
        <mxCell id="bc9_FfqfriQP2rn9gHKH-10" value="" style="edgeStyle=orthogonalEdgeStyle;rounded=0;orthogonalLoop=1;jettySize=auto;html=1;" edge="1" parent="bc9_FfqfriQP2rn9gHKH-1" source="bc9_FfqfriQP2rn9gHKH-11" target="bc9_FfqfriQP2rn9gHKH-15">
          <mxGeometry relative="1" as="geometry" />
        </mxCell>
        <mxCell id="bc9_FfqfriQP2rn9gHKH-11" value="Если все элементы стоки" style="rhombus;whiteSpace=wrap;html=1;" vertex="1" parent="bc9_FfqfriQP2rn9gHKH-1">
          <mxGeometry x="40" y="230" width="190" height="80" as="geometry" />
        </mxCell>
        <mxCell id="bc9_FfqfriQP2rn9gHKH-12" value="False" style="text;html=1;align=center;verticalAlign=middle;whiteSpace=wrap;rounded=0;" vertex="1" parent="bc9_FfqfriQP2rn9gHKH-1">
          <mxGeometry x="130" y="200" width="60" height="30" as="geometry" />
        </mxCell>
        <mxCell id="bc9_FfqfriQP2rn9gHKH-13" value="Вернуть отфильтрованные по A-Z строки" style="rounded=1;whiteSpace=wrap;html=1;" vertex="1" parent="bc9_FfqfriQP2rn9gHKH-1">
          <mxGeometry x="290" y="240" width="150" height="60" as="geometry" />
        </mxCell>
        <mxCell id="bc9_FfqfriQP2rn9gHKH-14" value="True" style="text;html=1;align=center;verticalAlign=middle;whiteSpace=wrap;rounded=0;" vertex="1" parent="bc9_FfqfriQP2rn9gHKH-1">
          <mxGeometry x="230" y="240" width="60" height="30" as="geometry" />
        </mxCell>
        <mxCell id="bc9_FfqfriQP2rn9gHKH-15" value="Ошибка" style="rounded=1;whiteSpace=wrap;html=1;" vertex="1" parent="bc9_FfqfriQP2rn9gHKH-1">
          <mxGeometry x="46.25" y="360" width="177.5" height="60" as="geometry" />
        </mxCell>
      </root>
    </mxGraphModel>
  </diagram>
</mxfile>
